# MetaSiberia standard primitive: octagonal cone, Y-up source coordinates.
o Cone
usemtl default
v 0.000000 0.500000 0.000000
v 0.000000 -0.500000 0.000000
v 0.500000 -0.500000 0.000000
v 0.353553 -0.500000 0.353553
v 0.000000 -0.500000 0.500000
v -0.353553 -0.500000 0.353553
v -0.500000 -0.500000 0.000000
v -0.353553 -0.500000 -0.353553
v 0.000000 -0.500000 -0.500000
v 0.353553 -0.500000 -0.353553
f 1 4 3
f 1 5 4
f 1 6 5
f 1 7 6
f 1 8 7
f 1 9 8
f 1 10 9
f 1 3 10
f 2 3 4
f 2 4 5
f 2 5 6
f 2 6 7
f 2 7 8
f 2 8 9
f 2 9 10
f 2 10 3
