# MetaSiberia standard primitive: hexagonal prism, Y-up source coordinates.
o Hexagonal_Prism
usemtl default
v 0.500000 -0.500000 0.000000
v 0.250000 -0.500000 0.433013
v -0.250000 -0.500000 0.433013
v -0.500000 -0.500000 0.000000
v -0.250000 -0.500000 -0.433013
v 0.250000 -0.500000 -0.433013
v 0.500000 0.500000 0.000000
v 0.250000 0.500000 0.433013
v -0.250000 0.500000 0.433013
v -0.500000 0.500000 0.000000
v -0.250000 0.500000 -0.433013
v 0.250000 0.500000 -0.433013
f 1 2 3 4 5 6
f 7 12 11 10 9 8
f 1 7 8 2
f 2 8 9 3
f 3 9 10 4
f 4 10 11 5
f 5 11 12 6
f 6 12 7 1
